<svg xmlns="http://www.w3.org/2000/svg" width="600" height="860" viewBox="0 0 600 860">
<defs><linearGradient id="bg" x1="0" y1="0" x2="1" y2="1"><stop stop-color="#da8324"/><stop offset="1" stop-color="#9e2121"/></linearGradient><filter id="s"><feDropShadow dx="0" dy="10" stdDeviation="9" flood-opacity=".36"/></filter></defs>
<rect width="600" height="860" rx="14" fill="url(#bg)"/>
<rect width="600" height="122" fill="#e60012"/><rect x="28" y="25" width="70" height="70" rx="12" fill="#fff"/><circle cx="63" cy="60" r="17" fill="#e60012"/><path d="M52 60h22M63 49v22" stroke="#fff" stroke-width="8" stroke-linecap="round"/>
<text x="118" y="58" fill="white" font-family="Arial,sans-serif" font-size="28" font-weight="800">NINTENDO</text><text x="118" y="86" fill="white" font-family="Arial,sans-serif" font-size="30" font-weight="900">SWITCH</text>
<g opacity=".32"><circle cx="500" cy="270" r="190" fill="#fde48a"/><circle cx="112" cy="650" r="155" fill="#fde48a"/><path d="M-30 485 630 275M-30 665 630 455" stroke="white" stroke-width="28"/></g>
<g filter="url(#s)"><circle cx="302" cy="430" r="138" fill="#fde48a"/><path d="M260 330c92 8 142 72 119 155-27 92-141 128-214 67-80-66-35-208 95-222Z" fill="white" opacity=".7"/><text x="300" y="475" text-anchor="middle" fill="#9e2121" font-family="Arial,sans-serif" font-size="164" font-weight="900">✦</text></g>
<rect x="35" y="624" width="530" height="162" rx="18" fill="#111" fill-opacity=".52"/><text x="300" y="680" text-anchor="middle" fill="white" font-family="Meiryo,sans-serif" font-size="36" font-weight="900" textLength="470" lengthAdjust="spacingAndGlyphs">大乱闘&#10;スマッシュ&#10;ブラザーズ</text>
<rect x="30" y="804" width="70" height="32" rx="4" fill="white"/><text x="65" y="828" text-anchor="middle" fill="#171717" font-family="Arial" font-size="17" font-weight="800">CERO</text>
</svg>